<svg id="visual" viewBox="0 0 900 600" width="900" height="600" xmlns="http://www.w3.org/2000/svg" xmlns:xlink="http://www.w3.org/1999/xlink" version="1.1"><g stroke-width="1" stroke-linejoin="bevel"><path d="M501 287L611 339L530 228Z" fill="#78627f" stroke="#78627f"></path><path d="M611 339L666 288L530 228Z" fill="#cbc1cd" stroke="#cbc1cd"></path><path d="M484 393L607 398L611 339Z" fill="#78627f" stroke="#78627f"></path><path d="M611 339L675 364L666 288Z" fill="#edeaee" stroke="#edeaee"></path><path d="M607 398L675 364L611 339Z" fill="#dcd6de" stroke="#dcd6de"></path><path d="M666 288L622 160L530 228Z" fill="#edeaee" stroke="#edeaee"></path><path d="M501 287L484 393L611 339Z" fill="#baadbd" stroke="#baadbd"></path><path d="M804 293L715 201L666 288Z" fill="#cbc1cd" stroke="#cbc1cd"></path><path d="M666 288L715 201L622 160Z" fill="#ffffff" stroke="#ffffff"></path><path d="M698 71L584 115L622 160Z" fill="#695070" stroke="#695070"></path><path d="M622 160L584 115L530 228Z" fill="#593f62" stroke="#593f62"></path><path d="M530 228L412 164L501 287Z" fill="#baadbd" stroke="#baadbd"></path><path d="M584 115L475 115L530 228Z" fill="#a99aad" stroke="#a99aad"></path><path d="M501 287L370 304L484 393Z" fill="#695070" stroke="#695070"></path><path d="M503 482L628 471L607 398Z" fill="#ffffff" stroke="#ffffff"></path><path d="M607 398L628 471L675 364Z" fill="#cbc1cd" stroke="#cbc1cd"></path><path d="M475 115L412 164L530 228Z" fill="#593f62" stroke="#593f62"></path><path d="M412 164L370 304L501 287Z" fill="#baadbd" stroke="#baadbd"></path><path d="M406 439L503 482L484 393Z" fill="#baadbd" stroke="#baadbd"></path><path d="M484 393L503 482L607 398Z" fill="#99879d" stroke="#99879d"></path><path d="M370 304L406 439L484 393Z" fill="#78627f" stroke="#78627f"></path><path d="M839 392L804 293L675 364Z" fill="#99879d" stroke="#99879d"></path><path d="M675 364L804 293L666 288Z" fill="#695070" stroke="#695070"></path><path d="M302 234L335 314L370 304Z" fill="#ffffff" stroke="#ffffff"></path><path d="M370 304L335 314L406 439Z" fill="#edeaee" stroke="#edeaee"></path><path d="M810 100L698 71L715 201Z" fill="#99879d" stroke="#99879d"></path><path d="M715 201L698 71L622 160Z" fill="#88748e" stroke="#88748e"></path><path d="M482 0L403 67L475 115Z" fill="#78627f" stroke="#78627f"></path><path d="M683 600L722 507L628 471Z" fill="#593f62" stroke="#593f62"></path><path d="M628 471L722 507L675 364Z" fill="#a99aad" stroke="#a99aad"></path><path d="M306 62L302 234L412 164Z" fill="#99879d" stroke="#99879d"></path><path d="M412 164L302 234L370 304Z" fill="#99879d" stroke="#99879d"></path><path d="M482 0L475 115L584 115Z" fill="#baadbd" stroke="#baadbd"></path><path d="M475 115L403 67L412 164Z" fill="#ffffff" stroke="#ffffff"></path><path d="M900 300L838 217L804 293Z" fill="#cbc1cd" stroke="#cbc1cd"></path><path d="M804 293L838 217L715 201Z" fill="#593f62" stroke="#593f62"></path><path d="M722 507L839 392L675 364Z" fill="#78627f" stroke="#78627f"></path><path d="M682 0L632 0L698 71Z" fill="#88748e" stroke="#88748e"></path><path d="M698 71L632 0L584 115Z" fill="#cbc1cd" stroke="#cbc1cd"></path><path d="M632 0L482 0L584 115Z" fill="#baadbd" stroke="#baadbd"></path><path d="M838 217L810 100L715 201Z" fill="#99879d" stroke="#99879d"></path><path d="M781 0L682 0L698 71Z" fill="#cbc1cd" stroke="#cbc1cd"></path><path d="M406 439L383 526L503 482Z" fill="#99879d" stroke="#99879d"></path><path d="M503 482L628 600L628 471Z" fill="#78627f" stroke="#78627f"></path><path d="M305 491L383 526L406 439Z" fill="#ffffff" stroke="#ffffff"></path><path d="M276 384L406 439L335 314Z" fill="#baadbd" stroke="#baadbd"></path><path d="M234 238L276 384L335 314Z" fill="#a99aad" stroke="#a99aad"></path><path d="M482 0L432 0L403 67Z" fill="#ffffff" stroke="#ffffff"></path><path d="M194 124L234 238L302 234Z" fill="#dcd6de" stroke="#dcd6de"></path><path d="M488 600L628 600L503 482Z" fill="#ffffff" stroke="#ffffff"></path><path d="M722 507L835 501L839 392Z" fill="#cbc1cd" stroke="#cbc1cd"></path><path d="M383 526L488 600L503 482Z" fill="#88748e" stroke="#88748e"></path><path d="M839 392L900 300L804 293Z" fill="#edeaee" stroke="#edeaee"></path><path d="M838 217L900 115L810 100Z" fill="#baadbd" stroke="#baadbd"></path><path d="M628 600L683 600L628 471Z" fill="#dcd6de" stroke="#dcd6de"></path><path d="M276 384L305 491L406 439Z" fill="#78627f" stroke="#78627f"></path><path d="M383 526L394 600L488 600Z" fill="#baadbd" stroke="#baadbd"></path><path d="M306 62L412 164L403 67Z" fill="#88748e" stroke="#88748e"></path><path d="M302 234L234 238L335 314Z" fill="#a99aad" stroke="#a99aad"></path><path d="M276 384L226 488L305 491Z" fill="#ffffff" stroke="#ffffff"></path><path d="M900 300L900 202L838 217Z" fill="#dcd6de" stroke="#dcd6de"></path><path d="M785 600L835 501L722 507Z" fill="#ffffff" stroke="#ffffff"></path><path d="M839 392L900 423L900 300Z" fill="#695070" stroke="#695070"></path><path d="M284 0L306 62L403 67Z" fill="#88748e" stroke="#88748e"></path><path d="M900 0L781 0L810 100Z" fill="#88748e" stroke="#88748e"></path><path d="M810 100L781 0L698 71Z" fill="#78627f" stroke="#78627f"></path><path d="M835 501L900 423L839 392Z" fill="#78627f" stroke="#78627f"></path><path d="M321 600L394 600L383 526Z" fill="#cbc1cd" stroke="#cbc1cd"></path><path d="M900 202L900 115L838 217Z" fill="#99879d" stroke="#99879d"></path><path d="M683 600L785 600L722 507Z" fill="#cbc1cd" stroke="#cbc1cd"></path><path d="M835 501L900 497L900 423Z" fill="#ffffff" stroke="#ffffff"></path><path d="M900 600L900 497L835 501Z" fill="#78627f" stroke="#78627f"></path><path d="M234 238L173 332L276 384Z" fill="#ffffff" stroke="#ffffff"></path><path d="M305 491L321 600L383 526Z" fill="#cbc1cd" stroke="#cbc1cd"></path><path d="M71 271L173 332L234 238Z" fill="#dcd6de" stroke="#dcd6de"></path><path d="M184 391L226 488L276 384Z" fill="#695070" stroke="#695070"></path><path d="M173 332L184 391L276 384Z" fill="#edeaee" stroke="#edeaee"></path><path d="M229 600L321 600L305 491Z" fill="#a99aad" stroke="#a99aad"></path><path d="M432 0L284 0L403 67Z" fill="#593f62" stroke="#593f62"></path><path d="M306 62L194 124L302 234Z" fill="#ffffff" stroke="#ffffff"></path><path d="M199 0L194 124L306 62Z" fill="#edeaee" stroke="#edeaee"></path><path d="M900 115L900 0L810 100Z" fill="#edeaee" stroke="#edeaee"></path><path d="M785 600L900 600L835 501Z" fill="#99879d" stroke="#99879d"></path><path d="M184 391L102 463L226 488Z" fill="#edeaee" stroke="#edeaee"></path><path d="M226 488L229 600L305 491Z" fill="#dcd6de" stroke="#dcd6de"></path><path d="M173 332L117 365L184 391Z" fill="#dcd6de" stroke="#dcd6de"></path><path d="M71 271L117 365L173 332Z" fill="#99879d" stroke="#99879d"></path><path d="M74 600L229 600L226 488Z" fill="#695070" stroke="#695070"></path><path d="M284 0L199 0L306 62Z" fill="#99879d" stroke="#99879d"></path><path d="M194 124L88 177L234 238Z" fill="#baadbd" stroke="#baadbd"></path><path d="M87 114L88 177L194 124Z" fill="#dcd6de" stroke="#dcd6de"></path><path d="M88 177L71 271L234 238Z" fill="#78627f" stroke="#78627f"></path><path d="M117 365L102 463L184 391Z" fill="#78627f" stroke="#78627f"></path><path d="M0 424L102 463L117 365Z" fill="#ffffff" stroke="#ffffff"></path><path d="M0 175L0 336L71 271Z" fill="#593f62" stroke="#593f62"></path><path d="M199 0L87 114L194 124Z" fill="#dcd6de" stroke="#dcd6de"></path><path d="M199 0L83 0L87 114Z" fill="#edeaee" stroke="#edeaee"></path><path d="M0 175L71 271L88 177Z" fill="#ffffff" stroke="#ffffff"></path><path d="M71 271L0 336L117 365Z" fill="#88748e" stroke="#88748e"></path><path d="M0 175L88 177L87 114Z" fill="#ffffff" stroke="#ffffff"></path><path d="M0 105L0 175L87 114Z" fill="#a99aad" stroke="#a99aad"></path><path d="M0 336L0 424L117 365Z" fill="#ffffff" stroke="#ffffff"></path><path d="M102 463L74 600L226 488Z" fill="#dcd6de" stroke="#dcd6de"></path><path d="M0 485L74 600L102 463Z" fill="#ffffff" stroke="#ffffff"></path><path d="M83 0L0 105L87 114Z" fill="#dcd6de" stroke="#dcd6de"></path><path d="M0 424L0 485L102 463Z" fill="#593f62" stroke="#593f62"></path><path d="M83 0L0 0L0 105Z" fill="#baadbd" stroke="#baadbd"></path><path d="M0 485L0 600L74 600Z" fill="#593f62" stroke="#593f62"></path></g></svg>